<svg width="43" height="43" viewBox="0 0 43 43" fill="none" xmlns="http://www.w3.org/2000/svg">
<path d="M11.8409 35C11.0597 35 10.3911 34.7174 9.83523 34.1521C9.27936 33.5868 9.00095 32.9065 9 32.1111V11.8889C9 11.0944 9.27841 10.4146 9.83523 9.84933C10.392 9.28407 11.0606 9.00096 11.8409 9H20.3636C20.7661 9 21.1037 9.13867 21.3764 9.416C21.6491 9.69333 21.785 10.0361 21.7841 10.4444C21.7831 10.8527 21.6468 11.196 21.375 11.4743C21.1032 11.7526 20.7661 11.8908 20.3636 11.8889H11.8409V32.1111H20.3636C20.7661 32.1111 21.1037 32.2498 21.3764 32.5271C21.6491 32.8044 21.785 33.1472 21.7841 33.5555C21.7831 33.9638 21.6468 34.3071 21.375 34.5854C21.1032 34.8637 20.7661 35.0019 20.3636 35H11.8409ZM29.1349 23.4444H18.9432C18.5407 23.4444 18.2036 23.3058 17.9318 23.0284C17.66 22.7511 17.5237 22.4083 17.5227 22C17.5218 21.5917 17.6581 21.2489 17.9318 20.9715C18.2055 20.6942 18.5426 20.5555 18.9432 20.5555H29.1349L26.4716 17.8472C26.2112 17.5824 26.081 17.2574 26.081 16.8722C26.081 16.487 26.2112 16.15 26.4716 15.8611C26.732 15.5722 27.0634 15.4215 27.4659 15.409C27.8684 15.3965 28.2116 15.5351 28.4957 15.825L33.5739 20.9889C33.858 21.2778 34 21.6148 34 22C34 22.3852 33.858 22.7222 33.5739 23.0111L28.4957 28.175C28.2116 28.4639 27.8745 28.6025 27.4844 28.591C27.0942 28.5794 26.7566 28.4287 26.4716 28.1389C26.2112 27.85 26.0871 27.5072 26.0994 27.1104C26.1117 26.7137 26.2476 26.3824 26.5071 26.1167L29.1349 23.4444Z" fill="white"/>
</svg>
