<svg width="34" height="33" viewBox="0 0 34 33" fill="none" xmlns="http://www.w3.org/2000/svg">
<path d="M11.3705 32.2097C11.8811 31.994 12.2388 31.4956 12.2388 30.9155V27.1092C12.2388 26.9703 12.2503 26.8258 12.2683 26.6792C12.2582 26.682 12.2489 26.6842 12.2388 26.6863C12.2388 26.6863 10.084 26.6863 9.65308 26.6863C8.57568 26.6863 7.64194 26.2633 7.21098 25.4175C6.70819 24.5012 6.49271 22.9504 5.19983 22.1046C4.98436 21.9636 5.12801 21.7522 5.55897 21.7522C5.98993 21.8226 6.92367 22.3865 7.49829 23.1619C8.14472 23.9373 8.79117 24.5717 9.94039 24.5717C11.7267 24.5717 12.6842 24.4835 13.2602 24.1804C13.9311 23.2014 14.8598 22.457 15.8302 22.457V22.4394C11.759 22.3111 9.1582 20.9831 7.9472 18.9327C5.31476 18.9623 3.02277 19.2181 1.71481 19.431C1.67315 19.2005 1.63724 18.9686 1.60635 18.7353C2.89707 18.5267 5.08491 18.2792 7.60028 18.232C7.51983 18.0375 7.45016 17.838 7.39126 17.6336C4.86943 17.5081 2.69309 17.6061 1.51082 17.702C1.49646 17.4679 1.47706 17.2346 1.47419 16.9978C2.65861 16.9026 4.77606 16.8075 7.23325 16.9195C7.1765 16.5671 7.13987 16.2069 7.13987 15.8319C7.13987 14.6336 7.57083 13.3649 8.36092 12.3076C8.00179 11.1093 7.499 8.57173 8.50458 7.6554C10.4439 7.6554 11.8086 8.57173 12.455 9.13563C13.6754 8.64151 15.0401 8.35956 16.5484 8.35956C18.0568 8.35956 19.4215 8.64151 20.5707 9.13492C21.2172 8.57103 22.5819 7.65469 24.5212 7.65469C25.5986 8.64151 25.024 11.1791 24.6648 12.3069C25.4549 13.3642 25.8859 14.5625 25.8141 15.8312C25.8141 16.1724 25.7817 16.5016 25.7351 16.8244C28.2483 16.7032 30.4232 16.8004 31.6277 16.8963C31.6263 17.1338 31.604 17.3657 31.5911 17.6005C30.3909 17.5032 28.1614 17.4031 25.5871 17.5377C25.5232 17.7746 25.4456 18.0051 25.3537 18.2285C27.9006 18.2609 30.1409 18.5027 31.4934 18.7142C31.4625 18.9482 31.4266 19.1801 31.3849 19.4099C30.0116 19.1942 27.6708 18.9418 25.0075 18.9291C23.8115 20.9578 21.2581 22.2808 17.2667 22.4352V22.457C19.1342 22.457 20.858 25.206 20.858 27.1092V30.9155C20.858 31.4956 21.2157 31.994 21.7264 32.2097C28.3064 30.0725 33.0686 23.9824 33.0686 16.818C33.0686 7.87884 25.6582 0.605957 16.5484 0.605957C7.43867 0.605957 0.0283203 7.87884 0.0283203 16.818C0.0283203 23.9824 4.79042 30.0725 11.3705 32.2097Z" fill="url(#paint0_linear_2314_9249)"/>
<defs>
<linearGradient id="paint0_linear_2314_9249" x1="16.5484" y1="0.605957" x2="16.5484" y2="32.2097" gradientUnits="userSpaceOnUse">
<stop stop-color="#E44B4B"/>
<stop offset="1" stop-color="#2C67BF"/>
</linearGradient>
</defs>
</svg>
