<svg width="89" height="91" viewBox="0 0 89 91" fill="none" xmlns="http://www.w3.org/2000/svg">
<path d="M44.4996 77.3181C28.0316 77.3181 14.6338 65.8017 14.6338 51.6458C14.6338 50.1345 15.8589 48.9094 17.3702 48.9094C18.8815 48.9094 20.1066 50.1345 20.1066 51.6458C20.1066 62.7839 31.0493 71.8453 44.4996 71.8453C46.0108 71.8453 47.236 73.0705 47.236 74.5817C47.236 76.093 46.0108 77.3181 44.4996 77.3181Z" fill="#ECB5B9"/>
<path d="M80.7328 29.8052C79.8341 28.59 78.1209 28.3339 76.9056 29.2316C75.6904 30.1303 75.4338 31.8434 76.3321 33.0588C80.4155 38.5815 82.5739 45.0088 82.5739 51.6461C82.5739 70.3283 65.4936 85.5274 44.4991 85.5274C23.5046 85.5274 6.4245 70.3281 6.4245 51.6459C6.4245 41.271 11.8148 31.4544 20.9321 25.0442L25.574 28.5671L22.3769 39.0093C22.0722 40.0039 22.3582 41.0851 23.1143 41.7996C23.8706 42.5141 24.9665 42.7373 25.942 42.377L44.5011 35.5165L63.0601 42.377C63.369 42.4912 63.69 42.547 64.0085 42.547C64.6958 42.547 65.3712 42.2878 65.888 41.7996C66.6443 41.0855 66.9301 40.0038 66.6253 39.0093L63.4269 28.5671L75.8056 19.1726C76.6722 18.5148 77.067 17.4059 76.8107 16.3484C76.5542 15.291 75.6959 14.4857 74.6244 14.2975C71.1363 13.6854 67.3925 13.5256 63.503 13.8222C56.3083 14.3714 50.3084 16.3695 47.2348 17.5774V8.96014L53.4162 5.0491C54.6933 4.24112 55.0736 2.55086 54.2656 1.27366C53.4578 -0.003359 51.7676 -0.383711 50.4902 0.42427L43.0353 5.14098C42.2426 5.64255 41.762 6.51523 41.762 7.45349V17.5763C38.666 16.3614 32.6702 14.3697 25.4984 13.8221C24.2299 13.7248 22.9794 13.6756 21.7818 13.6756H21.72C19.1832 13.6756 16.7105 13.8841 14.3715 14.2957C13.3 14.4839 12.4421 15.2893 12.1859 16.347C11.9298 17.4045 12.3247 18.513 13.1912 19.1706L16.3817 21.5921C6.65431 29.0336 0.951172 40.0206 0.951172 51.6461C0.951705 73.3458 20.4872 91 44.4993 91C68.5114 91 88.0467 73.3458 88.0467 51.6461C88.0467 43.829 85.5175 36.2767 80.7328 29.8052ZM25.0823 19.2789C34.03 19.9619 41.0667 23.1993 41.5996 23.4494L43.3037 24.2776C44.0576 24.6438 44.9376 24.6447 45.6922 24.2796L47.406 23.4499C47.4781 23.4155 54.7197 19.9813 63.9205 19.2789C64.8845 19.2053 65.8445 19.1626 66.7811 19.1516L58.5977 25.362C57.6838 26.0557 57.2995 27.246 57.6356 28.343L59.7747 35.3272L45.4504 30.0322C44.8382 29.8059 44.1652 29.8059 43.5527 30.0322L29.2276 35.3276L31.3661 28.3428C31.7022 27.2458 31.3176 26.0557 30.4037 25.362L22.2192 19.1507C23.145 19.1612 24.1061 19.2042 25.0823 19.2789Z" fill="#ECB5B9"/>
</svg>
