<svg width="34" height="34" viewBox="0 0 34 34" fill="none" xmlns="http://www.w3.org/2000/svg">
<path d="M9.78717 0C4.79815 0 0.739258 4.22125 0.739258 9.40983V24.4656C0.739258 29.6541 4.79815 33.8754 9.78717 33.8754H24.2638C29.2528 33.8754 33.3117 29.6541 33.3117 24.4656V9.40983C33.3117 4.22125 29.2528 0 24.2638 0H9.78717ZM9.78717 3.76393H24.2638C27.2569 3.76393 29.6926 6.29706 29.6926 9.40983V24.4656C29.6926 27.5783 27.2569 30.1115 24.2638 30.1115H9.78717C6.79412 30.1115 4.35842 27.5783 4.35842 24.4656V9.40983C4.35842 6.29706 6.79412 3.76393 9.78717 3.76393ZM26.0734 5.6459C25.5935 5.6459 25.1332 5.84418 24.7938 6.19711C24.4545 6.55005 24.2638 7.02873 24.2638 7.52786C24.2638 8.02699 24.4545 8.50568 24.7938 8.85861C25.1332 9.21155 25.5935 9.40983 26.0734 9.40983C26.5533 9.40983 27.0136 9.21155 27.353 8.85861C27.6923 8.50568 27.883 8.02699 27.883 7.52786C27.883 7.02873 27.6923 6.55005 27.353 6.19711C27.0136 5.84418 26.5533 5.6459 26.0734 5.6459ZM17.0255 7.52786C12.0365 7.52786 7.97759 11.7491 7.97759 16.9377C7.97759 22.1263 12.0365 26.3475 17.0255 26.3475C22.0145 26.3475 26.0734 22.1263 26.0734 16.9377C26.0734 11.7491 22.0145 7.52786 17.0255 7.52786ZM17.0255 11.2918C20.0185 11.2918 22.4542 13.8249 22.4542 16.9377C22.4542 20.0505 20.0185 22.5836 17.0255 22.5836C14.0324 22.5836 11.5968 20.0505 11.5968 16.9377C11.5968 13.8249 14.0324 11.2918 17.0255 11.2918Z" fill="url(#paint0_linear_2314_9247)"/>
<defs>
<linearGradient id="paint0_linear_2314_9247" x1="17.0255" y1="0" x2="17.0255" y2="33.8754" gradientUnits="userSpaceOnUse">
<stop stop-color="#E44B4B"/>
<stop offset="1" stop-color="#2C67BF"/>
</linearGradient>
</defs>
</svg>
