<svg width="371" height="290" viewBox="0 0 371 290" fill="none" xmlns="http://www.w3.org/2000/svg">
<path d="M284.169 138.634C290.354 147.899 293.965 159.265 293.965 171.395V202.213C293.965 232.461 271.517 257.964 242.67 257.964H96.7646C67.918 257.964 45.4697 232.461 45.4697 202.213V171.395C45.4697 159.576 48.897 148.481 54.7939 139.35L64.9443 145.711C60.266 152.858 57.4697 161.689 57.4697 171.395V202.213C57.4697 226.918 75.5802 245.964 96.7646 245.964H242.67C263.854 245.964 281.965 226.918 281.965 202.213V171.395C281.965 161.364 278.98 152.266 274.016 144.997L284.169 138.634Z" fill="white"/>
<path d="M169.315 7.99613C169.562 7.84203 169.864 7.84203 170.111 7.99613L331.22 108.992C331.759 109.33 331.759 110.184 331.22 110.521L170.111 211.517C169.864 211.672 169.562 211.672 169.315 211.517L8.2058 110.521C7.66708 110.184 7.66708 109.33 8.2058 108.992L169.315 7.99613Z" stroke="white" stroke-width="15"/>
<path d="M97.3855 215.192C102.699 215.192 107.006 211.25 107.006 206.387C107.006 201.524 102.699 197.581 97.3855 197.581C92.0725 197.581 87.7654 201.524 87.7654 206.387C87.7654 211.25 92.0725 215.192 97.3855 215.192Z" fill="white"/>
<path d="M244.168 215.192C249.481 215.192 253.788 211.25 253.788 206.387C253.788 201.524 249.481 197.581 244.168 197.581C238.855 197.581 234.548 201.524 234.548 206.387C234.548 211.25 238.855 215.192 244.168 215.192Z" fill="white"/>
<circle cx="326.965" cy="246.509" r="18.2456" stroke="white" stroke-width="7"/>
<circle cx="326.965" cy="246.509" r="18.2456" stroke="white" stroke-width="7"/>
<path d="M326.966 273.691V290" stroke="white" stroke-width="10"/>
<path d="M354.149 246.509H370.458" stroke="white" stroke-width="10"/>
<path d="M299.785 246.509H283.475" stroke="white" stroke-width="10"/>
<path d="M305.22 268.254L294.347 279.127" stroke="white" stroke-width="10"/>
<path d="M348.712 268.254L359.585 279.127" stroke="white" stroke-width="10"/>
<path d="M348.712 224.763L359.585 213.891" stroke="white" stroke-width="10"/>
<path d="M305.22 224.763L294.347 213.891" stroke="white" stroke-width="10"/>
<line x1="327.067" y1="113.01" x2="327.067" y2="227.174" stroke="white" stroke-width="8.15458"/>
</svg>
