<svg width="107" height="101" viewBox="0 0 107 101" fill="none" xmlns="http://www.w3.org/2000/svg">
<ellipse cx="53.5" cy="50.5" rx="53.5" ry="50.5" fill="#8AADB5"/>
<g filter="url(#filter0_d_2309_840)">
<path d="M65.4931 45.9507H38.6544C34.0121 45.9507 30.2488 50.0842 30.2488 55.1831V60.8521C30.2488 65.951 34.0121 70.0845 38.6544 70.0845H65.4931C70.1353 70.0845 73.8986 65.951 73.8986 60.8521V55.1831C73.8986 50.0842 70.1353 45.9507 65.4931 45.9507Z" fill="url(#paint0_linear_2309_840)"/>
<path d="M65.4931 46.0317H38.6544C34.0528 46.0317 30.3226 50.1289 30.3226 55.1831V60.8521C30.3226 65.9063 34.0528 70.0035 38.6544 70.0035H65.4931C70.0946 70.0035 73.8249 65.9063 73.8249 60.8521V55.1831C73.8249 50.1289 70.0946 46.0317 65.4931 46.0317Z" fill="url(#paint1_linear_2309_840)" stroke="black"/>
</g>
<path d="M81.9171 45.0528C81.9171 44.4714 81.4879 44 80.9585 44C80.4291 44 80 44.4714 80 45.0528V65.7852C80 66.3667 80.4291 66.838 80.9585 66.838C81.4879 66.838 81.9171 66.3667 81.9171 65.7852V45.0528Z" fill="url(#paint2_linear_2309_840)"/>
<g filter="url(#filter1_d_2309_840)">
<path d="M51.9276 24.986C52.0181 24.9292 52.1293 24.9292 52.2199 24.986L81.8554 43.5637C82.0536 43.6881 82.0536 44.002 81.8554 44.1264L52.2199 62.7041C52.1293 62.7609 52.0181 62.7609 51.9276 62.7041L22.292 44.1264C22.0939 44.002 22.0939 43.6881 22.292 43.5637L51.9276 24.986Z" fill="url(#paint3_linear_2309_840)"/>
<path d="M52.0006 25.1266C52.046 25.0983 52.1014 25.0983 52.1469 25.1266L81.7823 43.7045C81.8814 43.7665 81.8814 43.9236 81.7823 43.9856L52.1469 62.5635C52.1014 62.5918 52.046 62.5918 52.0006 62.5635L22.3652 43.9856C22.2661 43.9236 22.2661 43.7665 22.3652 43.7043L52.0006 25.1266Z" stroke="black" stroke-width="2"/>
</g>
<circle cx="81" cy="69" r="4" fill="#FBCB4E"/>
<circle cx="81" cy="69" r="3.5" stroke="black" stroke-opacity="0.08"/>
<circle cx="81" cy="69" r="3.5" stroke="black" stroke-opacity="0.08"/>
<path d="M81 74V77" stroke="#FBCB4E"/>
<path d="M86 69H89" stroke="#FBCB4E"/>
<path d="M76 69H73" stroke="#FBCB4E"/>
<path d="M77 73L75 75" stroke="#FBCB4E"/>
<path d="M85 73L87 75" stroke="#FBCB4E"/>
<path d="M85 65L87 63" stroke="#FBCB4E"/>
<path d="M77 65L75 63" stroke="#FBCB4E"/>
<path d="M37.5 65.5936C37.5 65.383 37.619 65.1905 37.8074 65.0963L39.1584 64.4208C40.0029 63.9985 40.9971 63.9985 41.8416 64.4208L43.1926 65.0963C43.381 65.1905 43.5 65.383 43.5 65.5936V65.5936C43.5 65.9372 43.1915 66.1986 42.8526 66.1421L40.8712 65.8119C40.6254 65.7709 40.3746 65.7709 40.1288 65.8119L38.1474 66.1421C37.8085 66.1986 37.5 65.9372 37.5 65.5936V65.5936Z" fill="#080707"/>
<path d="M60 65.8436C60 65.633 60.119 65.4405 60.3074 65.3463L61.6584 64.6708C62.5029 64.2485 63.4971 64.2485 64.3416 64.6708L65.6926 65.3463C65.881 65.4405 66 65.633 66 65.8436V65.8436C66 66.1872 65.6915 66.4486 65.3526 66.3921L63.3712 66.0619C63.1254 66.0209 62.8746 66.0209 62.6288 66.0619L60.6474 66.3921C60.3085 66.4486 60 66.1872 60 65.8436V65.8436Z" fill="#080707"/>
<defs>
<filter id="filter0_d_2309_840" x="25.8226" y="45.5317" width="52.5023" height="32.9718" filterUnits="userSpaceOnUse" color-interpolation-filters="sRGB">
<feFlood flood-opacity="0" result="BackgroundImageFix"/>
<feColorMatrix in="SourceAlpha" type="matrix" values="0 0 0 0 0 0 0 0 0 0 0 0 0 0 0 0 0 0 127 0" result="hardAlpha"/>
<feOffset dy="4"/>
<feGaussianBlur stdDeviation="2"/>
<feComposite in2="hardAlpha" operator="out"/>
<feColorMatrix type="matrix" values="0 0 0 0 0 0 0 0 0 0 0 0 0 0 0 0 0 0 0.25 0"/>
<feBlend mode="normal" in2="BackgroundImageFix" result="effect1_dropShadow_2309_840"/>
<feBlend mode="normal" in="SourceGraphic" in2="effect1_dropShadow_2309_840" result="shape"/>
</filter>
<filter id="filter1_d_2309_840" x="17.2909" y="24.1053" width="69.5657" height="47.4794" filterUnits="userSpaceOnUse" color-interpolation-filters="sRGB">
<feFlood flood-opacity="0" result="BackgroundImageFix"/>
<feColorMatrix in="SourceAlpha" type="matrix" values="0 0 0 0 0 0 0 0 0 0 0 0 0 0 0 0 0 0 127 0" result="hardAlpha"/>
<feOffset dy="4"/>
<feGaussianBlur stdDeviation="2"/>
<feComposite in2="hardAlpha" operator="out"/>
<feColorMatrix type="matrix" values="0 0 0 0 0 0 0 0 0 0 0 0 0 0 0 0 0 0 0.25 0"/>
<feBlend mode="normal" in2="BackgroundImageFix" result="effect1_dropShadow_2309_840"/>
<feBlend mode="normal" in="SourceGraphic" in2="effect1_dropShadow_2309_840" result="shape"/>
</filter>
<linearGradient id="paint0_linear_2309_840" x1="52.0737" y1="45.9507" x2="52.0737" y2="70.0845" gradientUnits="userSpaceOnUse">
<stop stop-color="#3085AA"/>
<stop offset="1" stop-color="#1B4469"/>
</linearGradient>
<linearGradient id="paint1_linear_2309_840" x1="52.0737" y1="46.0317" x2="52.0737" y2="70.0035" gradientUnits="userSpaceOnUse">
<stop stop-color="#3085AA"/>
<stop offset="1" stop-color="#1B4469"/>
</linearGradient>
<linearGradient id="paint2_linear_2309_840" x1="80.9585" y1="44" x2="80.9585" y2="66.838" gradientUnits="userSpaceOnUse">
<stop stop-color="#145377"/>
<stop offset="1" stop-color="#733A37"/>
</linearGradient>
<linearGradient id="paint3_linear_2309_840" x1="52.0737" y1="21.007" x2="52.0737" y2="62.7958" gradientUnits="userSpaceOnUse">
<stop stop-color="#FF3030"/>
<stop offset="1" stop-color="#1B4469"/>
</linearGradient>
</defs>
</svg>
