<svg width="79" height="75" viewBox="0 0 79 75" fill="none" xmlns="http://www.w3.org/2000/svg">
<circle cx="40.5" cy="37.5" r="37.5" fill="#8FA8B1"/>
<g filter="url(#filter0_d_1253_5346)">
<path d="M50.1302 34.1989H28.2508C24.4663 34.1989 21.3984 37.5686 21.3984 41.7253V46.3468C21.3984 50.5035 24.4663 53.8732 28.2508 53.8732H50.1302C53.9146 53.8732 56.9825 50.5035 56.9825 46.3468V41.7253C56.9825 37.5686 53.9146 34.1989 50.1302 34.1989Z" fill="url(#paint0_linear_1253_5346)"/>
<path d="M50.1301 34.265H28.2507C24.4995 34.265 21.4585 37.6051 21.4585 41.7253V46.3468C21.4585 50.4671 24.4995 53.8072 28.2507 53.8072H50.1301C53.8813 53.8072 56.9223 50.4671 56.9223 46.3468V41.7253C56.9223 37.6051 53.8813 34.265 50.1301 34.265Z" fill="url(#paint1_linear_1253_5346)" stroke="black" stroke-width="0.818457"/>
</g>
<path d="M63.5194 33.467C63.5194 32.993 63.1695 32.6087 62.7379 32.6087C62.3064 32.6087 61.9565 32.993 61.9565 33.467V50.3684C61.9565 50.8424 62.3064 51.2266 62.7379 51.2266C63.1695 51.2266 63.5194 50.8424 63.5194 50.3684V33.467Z" fill="url(#paint2_linear_1253_5346)"/>
<g filter="url(#filter1_d_1253_5346)">
<path d="M39.0716 17.1082C39.1454 17.0618 39.2361 17.0618 39.3099 17.1082L63.4693 32.253C63.6308 32.3544 63.6308 32.6103 63.4693 32.7118L39.3099 47.8566C39.2361 47.9029 39.1454 47.9029 39.0716 47.8566L14.9122 32.7118C14.7506 32.6103 14.7506 32.3544 14.9122 32.253L39.0716 17.1082Z" fill="url(#paint3_linear_1253_5346)"/>
<path d="M39.131 17.2228C39.168 17.1997 39.2132 17.1997 39.2503 17.2228L63.4096 32.3678C63.4903 32.4183 63.4903 32.5464 63.4096 32.597L39.2503 47.742C39.2132 47.7651 39.168 47.7651 39.131 47.742L14.9717 32.597C14.8909 32.5464 14.8909 32.4183 14.9717 32.3676L39.131 17.2228Z" stroke="black" stroke-width="1.63691"/>
</g>
<ellipse cx="62.7716" cy="52.9891" rx="3.26087" ry="3.26087" fill="#FBCB4E"/>
<path d="M62.7715 50.1374C64.3464 50.1374 65.623 51.4141 65.623 52.989C65.623 54.5639 64.3464 55.8406 62.7715 55.8406C61.1966 55.8405 59.9199 54.5639 59.9199 52.989C59.92 51.4142 61.1967 50.1375 62.7715 50.1374Z" stroke="black" stroke-opacity="0.08" stroke-width="0.818457"/>
<path d="M62.7715 50.1374C64.3464 50.1374 65.623 51.4141 65.623 52.989C65.623 54.5639 64.3464 55.8406 62.7715 55.8406C61.1966 55.8405 59.9199 54.5639 59.9199 52.989C59.92 51.4142 61.1967 50.1375 62.7715 50.1374Z" stroke="black" stroke-opacity="0.08" stroke-width="0.818457"/>
<path d="M63.021 57.292V59.7473" stroke="#FBCB4E" stroke-width="0.818457"/>
<path d="M67.1133 53.1997H69.5687" stroke="#FBCB4E" stroke-width="0.818457"/>
<path d="M58.929 53.1997H56.4736" stroke="#FBCB4E" stroke-width="0.818457"/>
<path d="M59.7473 56.4735L58.1104 58.1104" stroke="#FBCB4E" stroke-width="0.818457"/>
<path d="M66.2949 56.4735L67.9318 58.1104" stroke="#FBCB4E" stroke-width="0.818457"/>
<path d="M66.2949 49.9259L67.9318 48.289" stroke="#FBCB4E" stroke-width="0.818457"/>
<path d="M59.7473 49.9259L58.1104 48.289" stroke="#FBCB4E" stroke-width="0.818457"/>
<path d="M27.9238 49.3535C28.6575 48.7372 29.7282 48.7372 30.4619 49.3535L30.999 49.8047C31.1047 49.8936 31.166 50.0249 31.166 50.1631C31.1658 50.4729 30.8696 50.6968 30.5713 50.6133L29.6367 50.3516C29.3466 50.2703 29.0391 50.2703 28.749 50.3516L27.8145 50.6133C27.5161 50.6968 27.2199 50.4729 27.2197 50.1631C27.2197 50.025 27.2811 49.8936 27.3867 49.8047L27.9238 49.3535Z" fill="#080707" stroke="black" stroke-width="0.440339"/>
<path d="M47.6616 49.3535C48.3953 48.7372 49.466 48.7372 50.1997 49.3535L50.7368 49.8046C50.8425 49.8936 50.9038 50.0249 50.9038 50.163C50.9036 50.4728 50.6074 50.6968 50.3091 50.6132L49.3745 50.3515C49.0844 50.2703 48.7769 50.2703 48.4868 50.3515L47.5522 50.6132C47.2539 50.6968 46.9577 50.4728 46.9575 50.163C46.9575 50.0249 47.0189 49.8935 47.1245 49.8046L47.6616 49.3535Z" fill="#080707" stroke="black" stroke-width="0.440339"/>
<defs>
<filter id="filter0_d_1253_5346" x="17.7755" y="33.8557" width="42.8299" height="26.9084" filterUnits="userSpaceOnUse" color-interpolation-filters="sRGB">
<feFlood flood-opacity="0" result="BackgroundImageFix"/>
<feColorMatrix in="SourceAlpha" type="matrix" values="0 0 0 0 0 0 0 0 0 0 0 0 0 0 0 0 0 0 127 0" result="hardAlpha"/>
<feOffset dy="3.27383"/>
<feGaussianBlur stdDeviation="1.63691"/>
<feComposite in2="hardAlpha" operator="out"/>
<feColorMatrix type="matrix" values="0 0 0 0 0 0 0 0 0 0 0 0 0 0 0 0 0 0 0.25 0"/>
<feBlend mode="normal" in2="BackgroundImageFix" result="effect1_dropShadow_1253_5346"/>
<feBlend mode="normal" in="SourceGraphic" in2="effect1_dropShadow_1253_5346" result="shape"/>
</filter>
<filter id="filter1_d_1253_5346" x="10.8189" y="16.387" width="56.7435" height="38.7384" filterUnits="userSpaceOnUse" color-interpolation-filters="sRGB">
<feFlood flood-opacity="0" result="BackgroundImageFix"/>
<feColorMatrix in="SourceAlpha" type="matrix" values="0 0 0 0 0 0 0 0 0 0 0 0 0 0 0 0 0 0 127 0" result="hardAlpha"/>
<feOffset dy="3.27383"/>
<feGaussianBlur stdDeviation="1.63691"/>
<feComposite in2="hardAlpha" operator="out"/>
<feColorMatrix type="matrix" values="0 0 0 0 0 0 0 0 0 0 0 0 0 0 0 0 0 0 0.25 0"/>
<feBlend mode="normal" in2="BackgroundImageFix" result="effect1_dropShadow_1253_5346"/>
<feBlend mode="normal" in="SourceGraphic" in2="effect1_dropShadow_1253_5346" result="shape"/>
</filter>
<linearGradient id="paint0_linear_1253_5346" x1="39.1905" y1="34.1989" x2="39.1905" y2="53.8732" gradientUnits="userSpaceOnUse">
<stop stop-color="#3085AA"/>
<stop offset="1" stop-color="#1B4469"/>
</linearGradient>
<linearGradient id="paint1_linear_1253_5346" x1="39.1904" y1="34.265" x2="39.1904" y2="53.8072" gradientUnits="userSpaceOnUse">
<stop stop-color="#3085AA"/>
<stop offset="1" stop-color="#1B4469"/>
</linearGradient>
<linearGradient id="paint2_linear_1253_5346" x1="62.7379" y1="32.6087" x2="62.7379" y2="51.2266" gradientUnits="userSpaceOnUse">
<stop stop-color="#145377"/>
<stop offset="1" stop-color="#733A37"/>
</linearGradient>
<linearGradient id="paint3_linear_1253_5346" x1="39.1907" y1="13.8644" x2="39.1907" y2="47.9313" gradientUnits="userSpaceOnUse">
<stop stop-color="#FF3030"/>
<stop offset="1" stop-color="#1B4469"/>
</linearGradient>
</defs>
</svg>
