<svg width="31" height="30" viewBox="0 0 31 30" fill="none" xmlns="http://www.w3.org/2000/svg">
<path d="M5.79194 0.605957C3.08124 0.605957 0.883789 2.74981 0.883789 5.3944V24.5482C0.883789 27.1927 3.08124 29.3366 5.79194 29.3366H25.4245C28.1352 29.3366 30.3327 27.1927 30.3327 24.5482V5.3944C30.3327 2.74981 28.1352 0.605957 25.4245 0.605957H5.79194ZM7.25453 6.76252H12.82L16.7723 12.2417L21.5681 6.76252H23.3211L17.5638 13.3386L24.6631 23.18H19.099L14.5127 16.8231L8.94718 23.18H7.19427L13.7211 15.7262L7.25453 6.76252ZM9.93867 8.13065L19.8303 21.8119H21.979L12.0874 8.13065H9.93867Z" fill="url(#paint0_linear_2314_9248)"/>
<defs>
<linearGradient id="paint0_linear_2314_9248" x1="15.6082" y1="0.605957" x2="15.6082" y2="29.3366" gradientUnits="userSpaceOnUse">
<stop stop-color="#E44B4B"/>
<stop offset="1" stop-color="#2C67BF"/>
</linearGradient>
</defs>
</svg>
